<svg xmlns="http://www.w3.org/2000/svg" xmlns:xlink="http://www.w3.org/1999/xlink" version="1.1" id="Layer_1" x="0px" y="0px" enable-background="new 0 0 1024 1024" xml:space="preserve" viewBox="301.55 195.55 434.8 646.85">
<path fill="#ffffff" opacity="1.000000" stroke="none" d=" M534.654053,569.107788   C507.192841,571.801880 480.600647,569.522034 455.035767,560.343079   C388.333771,536.394043 346.220581,489.715179 331.210541,420.508698   C321.337921,374.989166 327.779144,330.667877 350.756348,289.697601   C374.381775,247.571472 410.102966,219.812103 455.821136,204.774521   C477.199707,197.742691 499.257568,194.484131 521.677856,195.854279   C576.840881,199.225449 623.159180,221.095657 659.083557,263.618805   C682.522156,291.362549 696.293396,323.669037 699.978821,359.536682   C706.514099,423.140869 686.964600,477.673767 639.656128,521.476196   C611.974121,547.106689 579.131348,562.149658 542.013855,568.133911   C539.721558,568.503479 537.407288,568.736267 534.654053,569.107788  M419.482544,515.987671   C443.024231,532.683167 468.911926,542.988220 497.811523,545.911133   C524.539307,548.614441 550.365051,545.296570 575.042725,535.005127   C646.120300,505.363251 689.705139,432.180176 675.330139,352.042236   C662.025940,277.873383 599.797180,225.672607 527.629883,219.547455   C500.568604,217.250656 474.249725,221.627716 449.058746,232.322449   C372.549561,264.804199 338.277466,344.657806 354.070160,417.313171   C362.972748,458.270081 385.327759,490.709839 419.482544,515.987671  z"/>
<path fill="#ffffff" opacity="1.000000" stroke="none" d=" M393.767761,628.970703   C393.767853,619.310913 393.923462,610.141724 393.708466,600.981140   C393.595490,596.167664 395.543396,594.277771 400.253113,594.665283   C402.901245,594.883179 405.606781,594.925476 408.243683,594.644836   C413.123199,594.125427 414.857697,596.516113 414.854095,600.988708   C414.845612,611.487244 414.914062,621.985840 414.915039,632.484375   C414.917145,654.815247 414.918427,677.146179 414.873566,699.476990   C414.855652,708.406006 414.799225,708.465088 406.123383,708.377319   C392.997101,708.244446 393.728851,710.495972 393.736786,696.150513   C393.742462,685.818298 393.601624,675.484009 393.782806,665.155090   C393.848633,661.401550 392.461975,660.258911 388.818848,660.295349   C374.155273,660.442078 359.487915,660.463562 344.825134,660.278687   C340.708862,660.226746 339.227570,661.598877 339.288361,665.747559   C339.471466,678.243469 339.230042,690.745544 339.410950,703.241516   C339.467529,707.149902 338.177704,708.709900 334.228668,708.436951   C330.579285,708.184692 326.899109,708.316467 323.233978,708.373413   C320.287323,708.419128 318.998871,706.895569 318.861725,704.121826   C318.845306,703.789001 318.831207,703.455627 318.831146,703.122498   C318.824158,668.792969 318.851318,634.463318 318.770386,600.133972   C318.760590,595.982483 320.541260,594.690857 324.522156,594.634277   C339.399628,594.422729 339.391388,594.323914 339.385864,609.234924   C339.382721,617.734009 339.371521,626.233276 339.428925,634.732056   C339.474030,641.409058 339.744812,641.639526 346.600220,641.644043   C360.098755,641.653015 373.597290,641.653076 387.095825,641.643372   C393.684021,641.638611 393.688446,641.624878 393.762177,634.964539   C393.782471,633.131531 393.767944,631.298157 393.767761,628.970703  z"/>
<path fill="#ffffff" opacity="1.000000" stroke="none" d=" M579.101440,839.961426   C573.352722,840.340759 569.468750,838.932739 569.970642,831.408386   C559.306213,841.062134 547.846924,844.068726 534.999084,841.161194   C527.341431,839.428223 520.674988,835.783936 515.461060,829.825256   C502.321411,814.808838 500.937988,790.112976 512.319763,773.622986   C518.743835,764.315735 527.837585,759.360352 538.880798,757.634644   C549.925720,755.908630 559.833862,758.735718 569.736633,766.325806   C569.736633,758.842834 569.735291,752.752380 569.737000,746.661926   C569.738525,741.166626 569.808655,735.670227 569.721313,730.176392   C569.671814,727.064331 570.904236,725.583496 574.133057,725.628662   C591.583496,725.872925 588.222412,723.437622 588.322754,738.691284   C588.525269,769.497131 588.387512,800.305420 588.370972,831.112671   C588.366211,839.907593 588.336121,839.907593 579.101440,839.961426  M525.474670,808.854004   C530.725891,821.106445 540.589539,826.518127 552.956360,823.645325   C564.438599,820.977844 571.057556,810.229370 570.484070,798.854431   C569.819214,785.666626 560.427612,775.941467 548.899109,775.395020   C531.936035,774.590942 520.508301,790.415100 525.474670,808.854004  z"/>
<path fill="#ffffff" opacity="1.000000" stroke="none" d=" M622.495239,711.065552   C603.778320,707.932922 591.172241,698.136658 586.411682,679.866943   C580.011414,655.304810 591.707458,630.316406 617.397461,624.397644   C645.437683,617.937439 670.770081,640.575195 667.365845,669.220215   C666.898499,673.152527 664.274597,673.033691 661.621399,673.047607   C646.972473,673.124512 632.323181,673.130676 617.674011,673.160828   C616.175781,673.163940 614.677490,673.156128 613.179321,673.169678   C604.555969,673.247681 603.886902,674.350647 607.618225,682.322205   C614.401184,696.813354 634.847595,699.351440 645.629578,686.591736   C649.317871,682.226990 651.839478,682.604065 655.908997,685.440735   C665.756287,692.304932 665.961121,693.281189 656.882690,701.137207   C647.106506,709.597168 635.545776,712.191223 622.495239,711.065552  M609.017761,649.588684   C608.659790,650.339050 608.265076,651.074341 607.949585,651.842163   C605.337891,658.197632 605.751343,658.813904 612.760620,658.824646   C622.744934,658.839966 632.731689,658.691650 642.712585,658.874512   C647.253845,658.957642 648.488770,657.250610 646.794617,653.186890   C646.032043,651.357849 645.328979,649.475830 644.325012,647.780151   C637.396851,636.078613 616.680969,635.967468 609.017761,649.588684  z"/>
<path fill="#ffffff" opacity="1.000000" stroke="none" d=" M428.646210,670.830688   C426.590546,645.281128 443.739594,628.500488 460.551514,624.549561   C486.100342,618.545288 510.628052,635.533020 514.552612,661.497498   C518.662537,688.688416 496.578033,712.595825 469.583221,711.359131   C448.728760,710.403870 429.643524,691.885376 428.646210,670.830688  M494.135071,658.540710   C489.160767,647.983154 480.321991,641.812134 471.050720,642.423523   C460.578979,643.114075 452.074554,650.079468 448.959991,660.516418   C443.867004,677.583435 456.477509,694.019897 473.823792,692.589539   C488.935120,691.343445 499.669250,675.102173 494.135071,658.540710  z"/>
<path fill="#ffffff" opacity="1.000000" stroke="none" d=" M624.205994,819.790894   C631.909912,828.283203 650.079163,828.436462 657.887329,817.943176   C660.736084,814.114685 663.175964,814.624451 666.606323,817.062378   C677.472717,824.784668 677.561707,825.992737 666.875732,834.186890   C653.984863,844.071960 633.037781,845.168884 618.714722,836.708862   C604.598389,828.370911 596.629272,811.030090 599.235413,794.321594   C602.404968,774.000793 613.106567,761.538513 631.804993,758.266663   C660.475891,753.249817 680.109741,774.501038 678.301147,801.214050   C678.055054,804.848206 675.736389,805.346802 672.760376,805.339172   C657.099976,805.299255 641.439331,805.323853 625.778809,805.338196   C617.883667,805.345459 617.441345,806.056091 620.299438,813.622742   C621.140137,815.848389 622.427673,817.754578 624.205994,819.790894  M619.980774,789.505493   C621.013916,791.812866 623.125549,790.976746 624.797974,790.999573   C634.124939,791.127075 643.456299,791.002441 652.780884,791.207092   C658.966553,791.342773 660.097717,789.851990 657.679504,783.946777   C654.312134,775.723938 646.819031,771.517090 637.097900,772.391785   C628.528015,773.162903 622.059265,779.381470 619.980774,789.505493  z"/>
<path fill="#ffffff" opacity="1.000000" stroke="none" d=" M323.755066,794.534668   C320.576599,795.751648 321.394867,798.217651 321.382446,800.244141   C321.313019,811.572693 321.229858,822.903687 321.407623,834.229858   C321.469055,838.142944 320.069489,839.535278 316.175262,839.443604   C298.834045,839.035706 301.788055,841.805725 301.697906,825.516907   C301.531006,795.362793 301.760437,765.206238 301.547333,735.052734   C301.511261,729.949402 303.114075,728.502686 308.112366,728.566284   C327.601685,728.814148 347.096100,728.652466 366.588593,728.669556   C372.759216,728.674988 373.222992,729.156921 373.303864,735.092957   C373.454590,746.155151 373.454590,746.158386 362.450348,746.164429   C350.454987,746.170959 338.457550,746.296936 326.465454,746.101074   C322.559387,746.037354 321.130585,747.276855 321.280365,751.245117   C321.537811,758.066101 321.493805,764.907898 321.296295,771.732849   C321.190308,775.394531 322.482025,776.753784 326.201355,776.706177   C338.361298,776.550476 350.527466,776.808655 362.684967,776.577087   C367.105957,776.492981 368.483124,778.063354 368.404419,782.379822   C368.163147,795.612000 369.415375,794.299744 356.661530,794.353699   C345.833038,794.399475 335.004456,794.422668 323.755066,794.534668  z"/>
<path fill="#ffffff" opacity="1.000000" stroke="none" d=" M450.745300,776.565063   C444.095337,779.344849 441.358124,784.397278 441.270966,790.898804   C441.085785,804.714600 441.128967,818.533325 441.045471,832.350586   C441.004822,839.072266 440.681732,839.446899 433.947998,839.373962   C419.633392,839.218872 420.932495,841.461914 420.917572,826.311157   C420.897888,806.331482 420.902039,786.351868 420.932922,766.372192   C420.944336,758.982727 421.267029,758.700928 428.442780,758.674194   C429.275269,758.671082 430.107758,758.672363 430.940247,758.673828   C438.464050,758.686768 438.464050,758.686829 440.030273,766.449036   C445.289795,762.628784 450.644104,759.612122 456.915161,758.273010   C476.411957,754.109741 492.234253,765.413879 494.422058,785.234131   C496.273407,802.006104 494.830688,818.818665 495.284607,835.605591   C495.361481,838.448425 494.009216,839.963501 491.146545,840.089111   C490.980225,840.096375 490.813934,840.111938 490.647644,840.112305   C472.490570,840.151123 475.904297,841.543335 475.681305,826.435547   C475.524078,815.782043 475.672241,805.124268 475.644989,794.468506   C475.606140,779.274780 465.841522,772.111328 450.745300,776.565063  z"/>
<path fill="#ffffff" opacity="1.000000" stroke="none" d=" M555.479919,643.740540   C555.391541,656.830078 555.330261,669.491028 555.369629,682.151733   C555.390320,688.818787 558.778503,692.299561 565.359375,692.676086   C565.691833,692.695129 566.025574,692.689026 566.358643,692.698059   C576.630676,692.977417 578.031250,694.844055 576.327271,705.336365   C575.913696,707.882751 574.279114,708.826721 572.283020,709.004700   C565.650391,709.596008 558.926575,710.124512 552.377502,708.795837   C541.443176,706.577515 535.799500,699.505920 535.700684,688.307983   C535.580078,674.648193 535.527100,660.984192 535.753540,647.327148   C535.826172,642.948364 534.855347,641.067322 529.981201,641.239502   C520.906799,641.560059 518.381165,637.755432 520.781311,628.672424   C521.522583,625.867004 523.628235,625.836487 525.845276,625.730103   C535.738159,625.255554 535.777832,625.245911 535.762512,615.267029   C535.738647,599.690002 534.768250,603.062195 548.966370,602.162842   C553.256897,601.891174 555.913452,603.216675 555.431763,608.382935   C555.015991,612.841736 555.434570,617.372681 555.330139,621.868225   C555.265442,624.653748 556.443848,625.778198 559.197083,625.722107   C563.359680,625.637268 567.526062,625.754333 571.690796,625.748108   C575.307800,625.742676 577.140869,627.223328 577.234863,631.126404   C577.477844,641.214905 577.539368,641.046204 567.211731,641.429688   C563.324829,641.574036 558.905762,639.546143 555.479919,643.740540  z"/>
<path fill="#ffffff" opacity="1.000000" stroke="none" d=" M683.608398,688.999390   C683.612244,658.188171 683.608521,627.876770 683.627808,597.565430   C683.631897,591.174988 683.985718,590.800171 690.471436,590.834656   C704.865845,590.911255 703.279968,589.136169 703.291138,603.564941   C703.316162,635.874878 703.305908,668.184875 703.304199,700.494812   C703.303772,708.388123 703.284180,708.471985 695.633057,708.375183   C681.921448,708.201782 683.795898,710.166992 683.620667,696.494263   C683.590759,694.162964 683.611633,691.830994 683.608398,688.999390  z"/>
<path fill="#ffffff" opacity="1.000000" stroke="none" d=" M690.471558,809.369141   C690.554810,794.258972 690.747620,779.597046 690.565063,764.939819   C690.510254,760.535522 692.137634,758.825928 696.337585,759.105530   C697.498840,759.182861 698.669556,759.105957 699.835266,759.129883   C708.200073,759.301514 708.200012,759.303894 709.695862,767.736755   C712.927490,765.562561 715.465942,762.657166 718.977905,761.303223   C720.838318,760.585938 722.678467,759.771423 724.596252,759.255127   C733.744263,756.792664 736.342957,758.771118 736.344849,768.067871   C736.344971,768.734253 736.355225,769.400879 736.342346,770.067017   C736.216797,776.543335 737.103088,776.700317 729.866089,776.435181   C717.623657,775.986816 709.582947,783.905884 709.395813,796.505554   C709.212830,808.830994 709.174316,821.165039 709.437439,833.487488   C709.537659,838.178833 708.115295,840.123474 703.260498,840.010925   C689.450195,839.690674 689.467651,841.175842 690.446838,826.787292   C690.829956,821.157593 690.462708,815.476807 690.471558,809.369141  z"/>
<path fill="#ffffff" opacity="1.000000" stroke="none" d=" M406.052307,814.000000   C406.036530,820.830505 405.980164,827.161255 406.021454,833.491394   C406.047821,837.533142 404.573547,839.528442 400.103058,839.445251   C383.370911,839.133850 386.771118,841.030945 386.650879,826.041565   C386.485168,805.385071 386.681854,784.725525 386.487396,764.069519   C386.449158,760.009216 387.513733,758.186584 391.767609,758.603516   C394.407776,758.862244 397.123627,758.904724 399.753143,758.596863   C404.814301,758.004395 406.080139,760.573914 406.056427,765.020996   C405.970276,781.180237 406.041321,797.340271 406.052307,814.000000  z"/>
<path fill="#ffffff" opacity="1.000000" stroke="none" d=" M400.256836,748.020996   C389.117462,748.956482 383.066711,744.092529 384.116608,735.503357   C384.863922,729.390015 389.413361,725.033264 395.382263,724.714722   C401.068176,724.411316 406.011871,728.042542 407.615875,733.700439   C409.339783,739.781189 406.941925,744.668274 400.256836,748.020996  z"/>
<path fill="#ffffff" opacity="1.000000" stroke="none" d=" M584.355896,458.353180   C564.539368,479.076599 545.056152,499.630219 525.372620,519.990173   C515.130432,530.584473 513.250183,530.565857 503.015076,519.850342   C478.047638,493.710785 452.105072,468.471252 428.393005,441.171478   C405.802094,415.162445 395.736359,384.470856 398.884583,350.155884   C403.549988,299.303558 445.020691,255.733459 495.225342,247.858704   C558.150452,237.988724 617.243835,279.617950 627.896240,342.471436   C634.449341,381.137360 622.816162,415.169922 597.184204,444.552185   C593.134766,449.194122 588.805847,453.592224 584.355896,458.353180  M453.756287,291.253448   C425.538330,317.422058 415.287384,349.347839 424.479340,386.737061   C437.518768,439.775909 493.772003,469.922729 544.590698,451.678864   C586.159180,436.755829 611.794128,393.624146 605.815063,349.994751   C599.859253,306.534546 566.463257,273.414459 523.066895,269.496338   C497.423798,267.181091 474.308716,274.297638 453.756287,291.253448  z"/>
<path fill="#ffffff" opacity="1.000000" stroke="none" d=" M514.999756,353.671387   C520.829956,353.669495 526.168274,353.488251 531.487915,353.725739   C535.378662,353.899475 536.790649,352.512329 536.721313,348.559784   C536.528625,337.569489 536.639709,326.573364 536.678528,315.579712   C536.700195,309.433807 538.328918,307.697754 544.531189,307.033295   C545.522217,306.927124 546.526367,306.909149 547.524475,306.908752   C557.463318,306.904755 559.229736,308.674866 559.225098,318.468292   C559.210571,348.951019 559.223999,379.433716 559.195312,409.916443   C559.191589,413.875732 559.953796,418.657684 555.735657,420.672546   C550.676697,423.089020 544.947388,422.919861 539.683044,420.803589   C536.911255,419.689301 536.634338,416.749512 536.648804,413.935822   C536.703796,403.275482 536.487061,392.609985 536.758850,381.956268   C536.873352,377.467194 535.203796,376.217651 530.941833,376.296356   C519.452454,376.508575 507.953735,376.490601 496.464142,376.274994   C492.447205,376.199615 491.246429,377.744232 491.302917,381.545746   C491.458862,392.037415 491.377136,402.533142 491.337860,413.027069   C491.311829,419.983704 489.028595,422.228363 482.053284,422.306396   C480.387787,422.325012 478.711334,422.185303 477.058136,422.328552   C472.261322,422.744232 470.007294,420.039062 469.086639,415.841583   C468.735168,414.239014 468.768829,412.533752 468.767731,410.875214   C468.747528,380.725616 468.746277,350.576050 468.751556,320.426453   C468.751892,318.595886 468.677765,316.743713 468.917694,314.938751   C469.716309,308.932007 471.212097,307.685883 477.336243,307.664551   C492.767395,307.610809 491.341309,306.722382 491.346893,321.672699   C491.350250,330.667603 491.528717,339.667694 491.270111,348.655121   C491.153107,352.720886 492.665405,353.889496 496.512482,353.731506   C502.499023,353.485657 508.503174,353.669678 514.999756,353.671387  z"/>
</svg>