<svg xmlns="http://www.w3.org/2000/svg" xmlns:xlink="http://www.w3.org/1999/xlink" id="ekGpQiUb8ne1" shape-rendering="geometricPrecision" text-rendering="geometricPrecision" project-id="0be6ec8671ed4afdbe46e0fa033d7dab" export-id="d5b4b05f879e41e6883b3ebc8bfbb1ed" cached="false" viewBox="8.16 99.4 276.91 75.25"><g transform="matrix(.200868 0 0 0.200868-57.470558 60.122867)"><path d="M534.654053,569.107788c-27.461212,2.694092-54.053406.414246-79.618286-8.764709-66.701996-23.949036-108.815186-70.6279-123.825226-139.834381-9.87262-45.519532-3.431397-89.840821,19.545807-130.811097c23.625427-42.126129,59.346618-69.885498,105.064788-84.92308c21.378571-7.03183,43.436432-10.29039,65.85672-8.920242c55.163025,3.37117,101.481324,25.241378,137.405701,67.764526c23.438599,27.743744,37.209839,60.050232,40.895264,95.917877c6.535278,63.604187-13.014221,118.137085-60.322693,161.939514-27.682007,25.630493-60.52478,40.673462-97.642273,46.657715-2.292297.369568-4.606567.602356-7.359802.973877M419.482544,515.987671c23.541687,16.695496,49.429382,27.000549,78.328979,29.923462c26.727784,2.703308,52.553528-.614563,77.231202-10.906006C646.1203,505.363251,689.705139,432.180176,675.330139,352.042236C662.02594,277.873383,599.79718,225.672607,527.629883,219.547455c-27.061279-2.296799-53.380158,2.080261-78.571137,12.774994-76.509185,32.48175-110.78128,112.335357-94.988586,184.990722c8.902588,40.95691,31.257599,73.396668,65.412384,98.6745Z" fill="#fff"/><path d="M584.355896,458.35318c-19.816528,20.723419-39.299744,41.277039-58.983276,61.636993-10.242188,10.5943-12.122437,10.575684-22.357544-.139831-24.967438-26.139557-50.910004-51.37909-74.622071-78.678864-22.590911-26.009033-32.656646-56.700622-29.508422-91.015594c4.665405-50.852326,46.136108-94.422425,96.340759-102.29718c62.92511-9.86998,122.018493,31.759246,132.670898,94.612732c6.553101,38.665924-5.080078,72.698486-30.712036,102.080749-4.049438,4.641937-8.378357,9.040039-12.828308,13.800995M453.756287,291.253448c-28.217957,26.16861-38.468903,58.094391-29.276947,95.483613c13.039428,53.038848,69.292663,83.185668,120.111358,64.941803c41.568482-14.923035,67.20343-58.054718,61.224365-101.684113-5.95581-43.460205-39.351806-76.580292-82.748168-80.498413-25.643097-2.315247-48.758179,4.8013-69.310608,21.75711Z" fill="#fff"/><path d="M514.999756,353.671387c5.8302-.001892,11.168518-.183136,16.488159.054352c3.890747.173736,5.302734-1.21341,5.233398-5.165955-.192688-10.990295-.081604-21.98642-.042785-32.980072.021667-6.145905,1.65039-7.881958,7.852661-8.546417.991028-.106171,1.995178-.124146,2.993286-.124543c9.938843-.003997,11.705261,1.766114,11.700623,11.55954-.014527,30.482727-.001099,60.965424-.029786,91.448151-.003723,3.959289.758484,8.741241-3.459655,10.756103-5.05896,2.416474-10.788269,2.247315-16.052613.131043-2.771789-1.114288-3.048706-4.054077-3.03424-6.867767.054992-10.66034-.161743-21.325837.110046-31.979554.114502-4.489074-1.555054-5.738617-5.817017-5.659912-11.489379.212219-22.988098.194245-34.477691-.021362-4.016937-.075379-5.217713,1.469238-5.161225,5.270752.155945,10.491669.074219,20.987396.034943,31.481323-.026031,6.956635-2.309265,9.201294-9.284576,9.279327-1.665497.018616-3.34195-.121093-4.995148.022156-4.796814.41568-7.050842-2.28949-7.971497-6.486969-.351471-1.602569-.31781-3.307831-.318908-4.966369-.020203-30.149598-.021454-60.299164-.016175-90.448761.000336-1.830567-.073791-3.68274.166138-5.487702.798615-6.006744,2.294403-7.252868,8.418549-7.2742c15.431152-.053742,14.005066-.942169,14.01065,14.008148.003357,8.994904.181824,17.994995-.076782,26.982422-.117004,4.065765,1.395294,5.234375,5.242371,5.076385c5.986541-.245849,11.990692-.061828,18.487274-.060119Z" fill="#fff"/></g><g transform="translate(0 0.000001)"><g transform="matrix(.221392 0 0 0.221392 21.169242-6.2483)"><path d="M393.767761,628.970703c.000092-9.65979.155701-18.828979-.059295-27.989563-.112976-4.813476,1.83493-6.703369,6.544647-6.315857c2.648132.217896,5.353668.260193,7.99057-.020447c4.879516-.519409,6.614014,1.871277,6.610412,6.343872-.008483,10.498536.059967,20.997132.060944,31.495667.002106,22.330872.003388,44.661804-.041473,66.992615-.017914,8.929016-.074341,8.988098-8.750183,8.900329-13.126282-.132873-12.394532,2.118653-12.386597-12.226806.005676-10.332215-.135162-20.666504.04602-30.995423.065827-3.75354-1.320831-4.896179-4.963958-4.859741-14.663575.146729-29.330933.168213-43.993714-.016662-4.116272-.051941-5.597564,1.32019-5.536773,5.468872.183105,12.49591-.058319,24.997985.122589,37.493957.056579,3.908386-1.233246,5.468384-5.182282,5.195435-3.649383-.252259-7.329559-.120484-10.99469-.063538-2.946655.045715-4.235107-1.477844-4.372253-4.251587-.016419-.332825-.030518-.666199-.030579-.999328-.006988-34.329529.020172-68.65918-.06076-102.988526-.009796-4.151489,1.770874-5.443115,5.75177-5.499695c14.877472-.211548,14.869232-.310363,14.863708,14.600647-.003143,8.499085-.014343,16.998352.043061,25.497132.045105,6.677002.315887,6.90747,7.171295,6.911987c13.498535.008972,26.99707.009033,40.495605-.000671c6.588196-.004761,6.592621-.018494,6.666352-6.678833.020294-1.833008.005767-3.666382.005584-5.993836Z" fill="#fff"/><path d="M622.495239,711.065552c-18.716919-3.13263-31.322998-12.928894-36.083557-31.198609-6.400268-24.562133,5.295776-49.550537,30.985779-55.469299c28.040222-6.460205,53.37262,16.177551,49.968384,44.822571-.467346,3.932312-3.091248,3.813476-5.744446,3.827392-14.648926.076905-29.298218.083069-43.947388.113221-1.49823.003112-2.996521-.0047-4.49469.00885-8.623352.078003-9.292419,1.180969-5.561096,9.152527c6.782959,14.491149,27.22937,17.029235,38.011353,4.269531c3.688293-4.364746,6.2099-3.987671,10.279419-1.151001c9.84729,6.864197,10.052124,7.840454.973693,15.696472-9.776184,8.459961-21.336914,11.054016-34.387451,9.928345m-13.477478-61.476868c-.357971.750366-.752685,1.485657-1.068176,2.253479-2.611694,6.355469-2.198242,6.971741,4.811035,6.982483c9.984314.01532,19.971069-.132996,29.951965.049866c4.54126.08313,5.776185-1.623902,4.082032-5.687622-.762574-1.829041-1.465638-3.71106-2.469605-5.406739-6.928161-11.701538-27.644043-11.812683-35.307251,1.808533Z" fill="#fff"/><path d="M428.64621,670.830688c-2.055664-25.54956,15.093384-42.3302,31.905304-46.281127c25.548828-6.004273,50.076538,10.983459,54.001098,36.947937c4.109925,27.190918-17.974579,51.098327-44.969391,49.861633-20.854461-.955261-39.939697-19.473755-40.937011-40.528443m65.488861-12.289978c-4.974304-10.557556-13.81308-16.728576-23.084351-16.117187-10.471741.690552-18.976166,7.655945-22.090729,18.092895-5.092987,17.067017,7.517518,33.503479,24.863801,32.073121c15.111328-1.246094,25.845458-17.487366,20.311279-34.048829Z" fill="#fff"/><path d="M555.479919,643.74054c-.088378,13.089538-.149658,25.750488-.11029,38.411193.020691,6.667054,3.408874,10.147828,9.989746,10.524353.332458.019043.666199.01294.999268.021973c10.272033.279358,11.672607,2.145996,9.968628,12.638306-.413575,2.546386-2.048157,3.490356-4.044251,3.668335-6.632629.591308-13.356445,1.119812-19.905518-.208863-10.934326-2.218322-16.578002-9.289917-16.676818-20.487854-.120606-13.65979-.173584-27.323791.052856-40.980835.072632-4.378784-.898193-6.259826-5.772339-6.087646-9.074402.320557-11.600036-3.48407-9.19989-12.567078.741272-2.80542,2.846924-2.835937,5.063965-2.942321c9.892883-.474549,9.932556-.484192,9.917236-10.463074-.023865-15.577027-.994262-12.204834,13.203858-13.104187c4.290527-.271668,6.947082,1.053833,6.465393,6.220093-.415772,4.458801.002807,8.989746-.101624,13.48529-.064697,2.785523,1.113709,3.909973,3.866944,3.853882c4.162597-.084839,8.328979.032226,12.493713.026001c3.617004-.005432,5.450073,1.47522,5.544067,5.378296.242981,10.088501.304505,9.9198-10.023132,10.303284-3.886902.144348-8.305969-1.883545-11.731812,2.310852Z" fill="#fff"/><path d="M683.608398,688.99939c.003846-30.811219.000123-61.12262.01941-91.43396.004089-6.390442.35791-6.765259,6.843628-6.730774c14.394409.076599,12.808532-1.698487,12.819702,12.730285.025024,32.309937.01477,64.619934.013061,96.929871-.000427,7.893311-.020019,7.977173-7.671142,7.880371-13.711609-.173401-11.837159,1.791809-12.01239-11.88092-.029908-2.331299-.009034-4.663269-.012269-7.494873Z" fill="#fff"/></g><g transform="matrix(.22 0 0 0.22 123.075098-34.726459)"><path d="M579.10144,839.961426c-5.748718.379333-9.63269-1.028687-9.130798-8.55304-10.664429,9.653748-22.123718,12.66034-34.971558,9.752808-7.657653-1.732971-14.324096-5.377258-19.538024-11.335938-13.139649-15.016418-14.523072-39.71228-3.141297-56.20227c6.424072-9.307251,15.517822-14.262634,26.561035-15.988342c11.044922-1.726014,20.953064,1.101074,30.855835,8.691162c0-7.482972-.001342-13.573426.000367-19.66388.001525-5.4953.071655-10.991699-.015687-16.485534-.049499-3.112061,1.182923-4.592896,4.411744-4.54773c17.450439.244263,14.089355-2.19104,14.189697,13.062622.202515,30.805847.064758,61.614136.048218,92.421387-.004761,8.794922-.034851,8.794922-9.269532,8.848755m-53.62677-31.107422c5.251221,12.252441,15.114869,17.664123,27.48169,14.791321c11.482239-2.667481,18.101196-13.415955,17.52771-24.790894-.664856-13.187805-10.056458-22.912964-21.584961-23.459411-16.963074-.804078-28.390808,15.02008-23.424439,33.458984Z" fill="#fff"/><path d="M624.205994,819.790894c7.703918,8.492309,25.873169,8.645568,33.681335-1.847718c2.848755-3.828491,5.288635-3.318725,8.718994-.880798c10.866394,7.72229,10.955384,8.930359.269409,17.124512-12.890869,9.88507-33.837951,10.981994-48.16101,2.521972-14.116333-8.337951-22.08545-25.678772-19.479309-42.387268c3.169555-20.320801,13.871154-32.783081,32.56958-36.054931c28.670898-5.016846,48.304748,16.234375,46.496154,42.947387-.246093,3.634156-2.564758,4.132752-5.540771,4.125122-15.6604-.039917-31.321045-.015319-46.981567-.000976-7.895142.007263-8.337464.717895-5.479371,8.284546.840699,2.225647,2.128235,4.131836,3.906556,6.168152m-4.22522-30.285401c1.033142,2.307373,3.144775,1.471253,4.8172,1.49408c9.326965.127502,18.658325.002868,27.98291.207519c6.185669.135681,7.316833-1.355102,4.89862-7.260315-3.36737-8.222839-10.860473-12.429687-20.581604-11.554992-8.569885.771118-15.038635,6.989685-17.117126,17.113708Z" fill="#fff"/><path d="M323.755066,794.534668c-3.178467,1.21698-2.360199,3.682983-2.37262,5.709473-.069427,11.328552-.152588,22.659546.025177,33.985717.061432,3.913086-1.338134,5.30542-5.232361,5.213746-17.341217-.407898-14.387207,2.362121-14.477356-13.926697-.1669-30.154114.062531-60.310669-.150573-90.464173-.036072-5.103332,1.566742-6.550048,6.565033-6.48645c19.489319.247864,38.983734.086182,58.476227.103272c6.170623.005432,6.634399.487365,6.715271,6.423401.150726,11.062194.150726,11.065429-10.853516,11.071472-11.995361.00653-23.992798.132507-35.984894-.063355-3.906067-.06372-5.334869,1.175781-5.185089,5.144043.257446,6.820984.21344,13.662781.01593,20.487732-.105987,3.661682,1.18573,5.020935,4.90506,4.973328c12.159943-.155701,24.326111.102478,36.483612-.12909c4.42099-.084106,5.798157,1.486267,5.719452,5.802735-.241272,13.232178,1.010956,11.919922-11.742889,11.973877-10.828492.045776-21.657074.068969-32.906464.180969Z" fill="#fff"/><path d="M450.7453,776.565063c-6.649963,2.779786-9.387176,7.832215-9.474334,14.333741-.185181,13.815796-.141999,27.634521-.225495,41.451782-.040649,6.72168-.363739,7.096313-7.097473,7.023376-14.314606-.15509-13.015503,2.087952-13.030426-13.062805-.019684-19.979675-.015533-39.959289.01535-59.938965.011414-7.389465.334107-7.671264,7.509858-7.697998.832489-.003112,1.664978-.001831,2.497467-.000366c7.523803.01294,7.523803.013001,9.090026,7.775208c5.259522-3.820252,10.613831-6.836914,16.884888-8.176026c19.496796-4.163269,35.319092,7.140869,37.506897,26.961121c1.851349,16.771973.40863,33.584534.862549,50.37146.076874,2.842834-1.275391,4.35791-4.138062,4.48352-.16632.007264-.332611.022827-.498901.023194-18.157074.038818-14.743347,1.43103-14.966339-13.676758-.157227-10.653504-.009064-21.311279-.036316-31.967041-.038849-15.193726-9.803467-22.357178-24.899689-17.903443Z" fill="#fff"/><path d="M690.471558,809.369141c.083252-15.110169.276062-29.772095.093505-44.429322-.054809-4.404297,1.572571-6.113891,5.772522-5.834289c1.161255.077331,2.331971.000427,3.497681.024353c8.364807.171631,8.364746.174011,9.860596,8.606872c3.231628-2.174194,5.77008-5.079589,9.282043-6.433532c1.860413-.717285,3.700562-1.5318,5.618347-2.048096c9.148011-2.462463,11.746705-.484009,11.748597,8.812744.000122.666382.010376,1.333008-.002503,1.999146-.125549,6.476318.760742,6.6333-6.476257,6.368164-12.242432-.448365-20.283142,7.470703-20.470276,20.070373-.182983,12.32544-.221497,24.659485.041626,36.981934.10022,4.691345-1.322144,6.635986-6.176941,6.523437-13.810303-.320251-13.792847,1.164917-12.81366-13.223633.383118-5.629699.01587-11.310485.02472-17.418151Z" fill="#fff"/><path d="M406.052307,814c-.015777,6.830505-.072143,13.161255-.030853,19.491394.026367,4.041748-1.447907,6.037048-5.918396,5.953857-16.732147-.311401-13.33194,1.585694-13.452179-13.403686-.165711-20.656494.030975-41.31604-.163483-61.972046-.038238-4.060303,1.026337-5.882935,5.280213-5.466003c2.640167.258728,5.356018.301208,7.985534-.006653c5.061158-.592468,6.326996,1.977051,6.303284,6.424133-.086151,16.159241-.015106,32.319275-.00412,48.979004Z" fill="#fff"/><path d="M400.256836,748.020996c-11.139374.935486-17.190125-3.928467-16.140228-12.517639.747314-6.113342,5.296753-10.470093,11.265655-10.788635c5.685913-.303406,10.629608,3.32782,12.233612,8.985717c1.723908,6.08075-.67395,10.967835-7.359039,14.320557Z" fill="#fff"/></g></g></svg>