<svg xmlns="http://www.w3.org/2000/svg" xmlns:xlink="http://www.w3.org/1999/xlink" id="eRdwhPo8JyK1" shape-rendering="geometricPrecision" text-rendering="geometricPrecision" project-id="0be6ec8671ed4afdbe46e0fa033d7dab" export-id="fc3777f635024867aa2abed75a33e4ea" cached="false" viewBox="73.61 42.46 110.92 110.97"><g transform="matrix(.296211 0 0 0.296211-23.177017-15.463457)"><path d="M534.654053,569.107788c-27.461212,2.694092-54.053406.414246-79.618286-8.764709-66.701996-23.949036-108.815186-70.6279-123.825226-139.834381-9.87262-45.519532-3.431397-89.840821,19.545807-130.811097c23.625427-42.126129,59.346618-69.885498,105.064788-84.92308c21.378571-7.03183,43.436432-10.29039,65.85672-8.920242c55.163025,3.37117,101.481324,25.241378,137.405701,67.764526c23.438599,27.743744,37.209839,60.050232,40.895264,95.917877c6.535278,63.604187-13.014221,118.137085-60.322693,161.939514-27.682007,25.630493-60.52478,40.673462-97.642273,46.657715-2.292297.369568-4.606567.602356-7.359802.973877M419.482544,515.987671c23.541687,16.695496,49.429382,27.000549,78.328979,29.923462c26.727784,2.703308,52.553528-.614563,77.231202-10.906006C646.1203,505.363251,689.705139,432.180176,675.330139,352.042236C662.02594,277.873383,599.79718,225.672607,527.629883,219.547455c-27.061279-2.296799-53.380158,2.080261-78.571137,12.774994-76.509185,32.48175-110.78128,112.335357-94.988586,184.990722c8.902588,40.95691,31.257599,73.396668,65.412384,98.6745Z" fill="#fff"/><path d="M584.355896,458.35318c-19.816528,20.723419-39.299744,41.277039-58.983276,61.636993-10.242188,10.5943-12.122437,10.575684-22.357544-.139831-24.967438-26.139557-50.910004-51.37909-74.622071-78.678864-22.590911-26.009033-32.656646-56.700622-29.508422-91.015594c4.665405-50.852326,46.136108-94.422425,96.340759-102.29718c62.92511-9.86998,122.018493,31.759246,132.670898,94.612732c6.553101,38.665924-5.080078,72.698486-30.712036,102.080749-4.049438,4.641937-8.378357,9.040039-12.828308,13.800995M453.756287,291.253448c-28.217957,26.16861-38.468903,58.094391-29.276947,95.483613c13.039428,53.038848,69.292663,83.185668,120.111358,64.941803c41.568482-14.923035,67.20343-58.054718,61.224365-101.684113-5.95581-43.460205-39.351806-76.580292-82.748168-80.498413-25.643097-2.315247-48.758179,4.8013-69.310608,21.75711Z" fill="#fff"/><path d="M514.999756,353.671387c5.8302-.001892,11.168518-.183136,16.488159.054352c3.890747.173736,5.302734-1.21341,5.233398-5.165955-.192688-10.990295-.081604-21.98642-.042785-32.980072.021667-6.145905,1.65039-7.881958,7.852661-8.546417.991028-.106171,1.995178-.124146,2.993286-.124543c9.938843-.003997,11.705261,1.766114,11.700623,11.55954-.014527,30.482727-.001099,60.965424-.029786,91.448151-.003723,3.959289.758484,8.741241-3.459655,10.756103-5.05896,2.416474-10.788269,2.247315-16.052613.131043-2.771789-1.114288-3.048706-4.054077-3.03424-6.867767.054992-10.66034-.161743-21.325837.110046-31.979554.114502-4.489074-1.555054-5.738617-5.817017-5.659912-11.489379.212219-22.988098.194245-34.477691-.021362-4.016937-.075379-5.217713,1.469238-5.161225,5.270752.155945,10.491669.074219,20.987396.034943,31.481323-.026031,6.956635-2.309265,9.201294-9.284576,9.279327-1.665497.018616-3.34195-.121093-4.995148.022156-4.796814.41568-7.050842-2.28949-7.971497-6.486969-.351471-1.602569-.31781-3.307831-.318908-4.966369-.020203-30.149598-.021454-60.299164-.016175-90.448761.000336-1.830567-.073791-3.68274.166138-5.487702.798615-6.006744,2.294403-7.252868,8.418549-7.2742c15.431152-.053742,14.005066-.942169,14.01065,14.008148.003357,8.994904.181824,17.994995-.076782,26.982422-.117004,4.065765,1.395294,5.234375,5.242371,5.076385c5.986541-.245849,11.990692-.061828,18.487274-.060119Z" fill="#fff"/></g></svg>